<?xml version="1.0" encoding="UTF-8"?>
<svg id="_Слой_2" data-name="Слой 2" xmlns="http://www.w3.org/2000/svg" viewBox="0 0 187.86 109.13">
  <defs>
    <style>
      .cls-1 {
        fill: #fff;
        stroke: #006837;
        stroke-miterlimit: 10;
        stroke-width: 1.29px;
      }

      .cls-2 {
        fill: #8cc63f;
      }

      .cls-3, .cls-4 {
        fill: #006837;
      }

      .cls-5 {
        letter-spacing: -.05em;
      }

      .cls-6 {
        letter-spacing: -.06em;
      }

      .cls-7 {
        letter-spacing: -.05em;
      }

      .cls-4 {
        font-family: BlackJack, BlackJack;
        font-size: 14.29px;
      }
    </style>
  </defs>
  <g id="OBJECTS">
    <g>
      <g>
        <path class="cls-2" d="m135.44,50.22c.16-7.08-1.23-14.43-4.36-21.51C120.77,5.39,95.51-6.03,74.67,3.2c-17.34,7.68-26.15,27.24-22.67,47.02h83.45Z"/>
        <path class="cls-2" d="m186.87,56.76h-12.65s-.67,1.57-.67,1.57c-1.85,4.37-3.07,7.2-4.54,10.47-1.5-3.42-2.79-6.25-4.81-10.57l-.7-1.49h-12.88s0,0,0,0h-6.11s.08,12.04.08,12.04c-2.69-.14-4.77-.25-7.51-.37l-.08-11.69h-8.09s-2.38,0-2.38,0h-1.11s0,0,0,0h-25.88s.02,9.04.02,9.04c0,0,6.82.03,8.91.04l.05,13.07-2.24-.06c-5-.14-7.85-.18-11.96-.18v-21.92s-11.57,0-11.57,0l-.03,18.74c-2.05-5.42-3.79-10.1-6.4-17.18l-.62-1.69h-12.46l-.63,1.69c-3.31,8.92-5.26,14.26-7.96,21.88l-.42.03c-5.36.43-8.42.71-12.99,1.21l.02-3.11c3.9-.29,6.47-.45,10.98-.71l2.42-.14.06-9.28-2.71.11c-4.38.18-6.95.3-10.69.51l.02-2.53c4.75-.1,7.85-.15,13.26-.23l2.53-.04.06-9.27-27.37.02h0s-10.1,0-10.1,0l-.07,13.43c-2.74.2-4.81.37-7.48.59l.03-14.02H.65v41.48l3.15-.7c2.52-.56,3.78-.83,6.3-1.36l2.06-.43.03-14.75c2.74-.32,4.79-.54,7.45-.81l-.07,14.13,3.05-.53c2.53-.44,3.8-.66,6.34-1.06l1.82-.29,1.83-.27c8.84-1.32,13.18-1.85,22.07-2.69l.68-.06c2.73-.25,4.12-.37,6.87-.58l1.71-.13s1.57-4.7,2.08-6.23c2.53-.13,4.35-.21,6.86-.31.46,1.34,2.05,5.9,2.05,5.9l1.91-.08c2.75-.11,4.13-.15,6.88-.22l.81-.02.82-.02c3.35-.06,6.03-.1,8.57-.1,3.57,0,7,.07,12.24.23l2.46.08,2.42.11c2.56.11,3.84.18,6.41.33l2.75.16-.12-22.67c1.06.01,3.4.04,5.42.06l.15,23.01,2.35.2c2.56.22,3.84.34,6.39.6l2.87.29-.09-12.27c2.69.16,4.76.3,7.51.5l.09,12.66,2.23.3c2.55.34,3.82.52,6.36.9l2.99.45-.17-25.04c2.24,4.46,4.16,8.49,7.04,14.76l.05,11.43,2.12.38c2.54.45,3.8.69,6.33,1.19l3.09.61-.04-12.74c4.23-8.64,6.35-13.23,10.52-22.77l1.58-3.62Zm-117.71,16.41c.1-.29.19-.57.29-.84.09.27.19.54.28.82-.19,0-.38.01-.57.02Z"/>
        <path class="cls-1" d="m186.87,54.15h-12.65s-.67,1.57-.67,1.57c-1.85,4.37-3.07,7.2-4.54,10.47-1.5-3.42-2.79-6.25-4.81-10.57l-.7-1.49h-12.88s0,0,0,0h-6.11s.08,12.04.08,12.04c-2.69-.14-4.77-.25-7.51-.37l-.08-11.69h-8.09s-2.38,0-2.38,0h-1.11s0,0,0,0h-25.88s.02,9.04.02,9.04c0,0,6.82.03,8.91.04l.05,13.07-2.24-.06c-5-.14-7.85-.18-11.96-.18v-21.92s-11.57,0-11.57,0l-.03,18.74c-2.05-5.42-3.79-10.1-6.4-17.18l-.62-1.69h-12.46l-.63,1.69c-3.31,8.92-5.26,14.26-7.96,21.88l-.42.03c-5.36.43-8.42.71-12.99,1.21l.02-3.11c3.9-.29,6.47-.45,10.98-.71l2.42-.14.06-9.28-2.71.11c-4.38.18-6.95.3-10.69.5l.02-2.53c4.75-.1,7.85-.15,13.26-.23l2.53-.04.06-9.27-27.37.02h0s-10.1,0-10.1,0l-.07,13.43c-2.74.2-4.81.37-7.48.59l.03-14.02H.65v41.48l3.15-.7c2.52-.56,3.78-.83,6.3-1.36l2.06-.43.03-14.75c2.74-.32,4.79-.54,7.45-.81l-.07,14.13,3.05-.53c2.53-.44,3.8-.66,6.34-1.06l1.82-.29,1.83-.27c8.84-1.32,13.18-1.85,22.07-2.69l.68-.06c2.73-.25,4.12-.37,6.87-.58l1.71-.13s1.57-4.7,2.08-6.23c2.53-.13,4.35-.21,6.86-.31.46,1.34,2.05,5.9,2.05,5.9l1.91-.08c2.75-.11,4.13-.15,6.88-.22l.81-.02.82-.02c3.35-.06,6.03-.1,8.57-.1,3.57,0,7,.07,12.24.23l2.46.08,2.42.11c2.56.11,3.84.18,6.41.33l2.75.16-.12-22.67c1.06.01,3.4.04,5.42.06l.15,23.01,2.35.2c2.56.22,3.84.34,6.39.6l2.87.29-.09-12.27c2.69.16,4.76.3,7.51.5l.09,12.66,2.23.3c2.55.34,3.82.52,6.36.9l2.99.44-.17-25.04c2.24,4.46,4.16,8.49,7.04,14.76l.05,11.43,2.12.38c2.54.45,3.8.69,6.33,1.19l3.09.61-.04-12.75c4.23-8.64,6.35-13.23,10.52-22.77l1.58-3.62Zm-117.71,16.41c.1-.29.19-.56.29-.84.09.27.19.54.28.82-.19,0-.38.01-.57.02Z"/>
        <g>
          <path class="cls-2" d="m28.74,56.71c-.06,10.28-.13,20.56-.19,30.85-2.56.41-3.83.62-6.39,1.06.03-5.56.04-8.34.07-13.91-5.06.5-7.58.77-12.63,1.36l-.03,14.95c-2.54.53-3.81.8-6.34,1.37,0-11.88,0-23.77,0-35.65,2.56,0,3.85,0,6.41,0-.01,5.7-.02,8.55-.03,14.24,5.05-.44,7.58-.64,12.64-1.01.03-5.3.04-7.95.07-13.25,2.56,0,3.85,0,6.41,0Z"/>
          <path class="cls-2" d="m54.63,56.69c-.01,1.66-.02,2.48-.03,4.14-6.32.09-9.48.15-15.8.28-.02,3.12-.03,4.68-.06,7.8,5.36-.3,8.04-.43,13.41-.65-.01,1.66-.02,2.48-.03,4.14-5.37.3-8.05.48-13.41.89-.02,3.36-.04,5.04-.06,8.4,6.31-.72,9.48-1.02,15.81-1.53-.01,1.66-.02,2.48-.03,4.14-8.91.84-13.35,1.38-22.22,2.7.07-10.09.13-20.19.2-30.28,8.88,0,13.32,0,22.21-.01Z"/>
          <path class="cls-2" d="m73.92,56.55c3.88,10.55,5.83,15.71,9.75,26.02-2.77.06-4.16.11-6.93.22-.82-2.35-1.23-3.53-2.04-5.89-4.23.15-6.34.24-10.56.47-.84,2.49-1.26,3.74-2.1,6.27-2.79.21-4.18.33-6.96.59,3.24-9.26,6.58-18.48,10-27.68h8.85Zm-8.42,16.74c3.13-.13,4.69-.19,7.82-.28-1.54-4.48-2.3-6.73-3.83-11.27-1.59,4.58-2.39,6.89-3.99,11.55Z"/>
          <path class="cls-2" d="m85.31,82.54c.02-10.34.03-15.51.05-25.86,2.56,0,3.85,0,6.41,0,0,8.77,0,13.15,0,21.92,5.79-.02,8.69.02,14.47.18,0,1.56,0,2.34.01,3.9-8.37-.27-12.56-.3-20.94-.14Z"/>
          <path class="cls-2" d="m117.59,83.2c-2.58-.15-3.87-.22-6.44-.33-.04-8.9-.05-13.35-.09-22.25-3.56-.02-5.34-.03-8.91-.05,0-1.55,0-2.33,0-3.88,9.68,0,14.52,0,24.21,0,.01,1.63.02,2.44.03,4.07-3.56-.04-5.34-.06-8.91-.1.05,9.01.07,13.52.12,22.54Z"/>
          <path class="cls-2" d="m153.54,56.71c.07,10.08.13,20.17.2,30.25-2.56-.38-3.84-.56-6.4-.9-.04-5.12-.05-7.68-.09-12.8-5.07-.38-7.61-.55-12.69-.84.03,4.86.05,7.29.09,12.15-2.57-.26-3.86-.38-6.43-.6-.07-10.91-.11-16.37-.18-27.28,2.57,0,3.85,0,6.41,0,.03,4.63.05,6.95.08,11.58,5.08.22,7.61.34,12.69.62-.03-4.88-.05-7.32-.09-12.19,2.57,0,3.85,0,6.41,0Z"/>
          <path class="cls-2" d="m172.22,90.14c-2.54-.5-3.82-.74-6.37-1.2-.02-3.93-.03-5.9-.05-9.84-4.35-9.5-6.54-13.94-10.92-22.41,2.79,0,4.19,0,6.99,0,2.85,6.11,4.27,9.27,7.1,15.87,2.78-6.09,4.17-9.25,6.97-15.85,2.79,0,4.19,0,6.99,0-4.33,9.9-6.47,14.51-10.74,23.21.01,4.08.02,6.12.03,10.2Z"/>
        </g>
        <g>
          <path class="cls-3" d="m96.36,37.03c-.39.58-1.33.64-2.1.13-.77-.51-1.09-1.4-.7-1.98.39-.58,1.32-.64,2.1-.13.77.51,1.09,1.4.7,1.98Z"/>
          <g>
            <path class="cls-3" d="m88.64,16.15c.81,3.56,1.09,6.55,1.09,6.55,0,0-1.04-2.82-1.86-6.38-.55-2.4-.85-4.54-1-5.68-.6.01-1.18.03-1.76.07.31.89,1.22,3.59,1.98,6.86.95,4.01,1.33,7.35,1.33,7.35,0,0-1.15-3.17-2.09-7.17-.77-3.27-1.17-6.1-1.29-7.03-1.32.1-2.6.29-3.84.58-.09.02-.17.04-.26.07.61,1.28,1.93,4.03,3.39,7.23,2.01,4.43,3.54,8.09,3.54,8.09,0,0-2.23-3.31-4.26-7.77-1.47-3.23-2.41-6.15-2.82-7.51-2.17.53-4.19,1.34-5.99,2.44.31.16.76.42,1.3.75,1.07.64,2.51,1.64,3.94,2.92,1.43,1.29,2.58,2.6,3.34,3.59.77.99,1.18,1.65,1.18,1.65,0,0-.57-.54-1.47-1.39-.91-.85-2.17-2.01-3.58-3.27-1.41-1.25-2.7-2.38-3.65-3.19-.5-.43-.91-.77-1.17-1-1.03.63-1.98,1.35-2.86,2.17.36.15.83.35,1.37.59,1.38.62,3.24,1.59,5.18,2.86,1.92,1.27,3.54,2.61,4.66,3.63,1.11,1.02,1.74,1.71,1.74,1.71,0,0-.77-.54-1.99-1.4-1.23-.86-2.94-2.02-4.84-3.28-1.91-1.25-3.65-2.37-4.93-3.16-.53-.33-.98-.61-1.32-.82-.51.47-.99.99-1.44,1.53l22.1,14.59-4.41-21.53s-.01-.1-.02-.15c-.29-.01-.58-.01-.87,0,.38,1.1,1.02,3.13,1.56,5.5Z"/>
            <path class="cls-3" d="m68.8,46.55c.91,1.25,1.91,2.47,2.98,3.67h1.39c-.09-.1-.18-.2-.27-.31-1.05-1.16-2-2.36-2.86-3.6-.13-.19-.26-.38-.38-.57-6.13-9.1-7.35-19.74-2.17-27.6,4.5-6.81,12.82-10,21.98-9.39.2.01.39.04.6.05,4.65.4,9.5,1.76,14.16,4.14.07.03.13.07.2.1,1.15.59,2.28,1.24,3.4,1.96.19.12.38.24.57.36.27.18.55.37.81.56,2.2,1.53,4.23,3.23,6.04,5.06.09.1.19.19.28.28h0c1.65,1.72,3.12,3.54,4.39,5.45.09.15.19.29.28.44.48.77.94,1.54,1.37,2.34.24.43.46.85.66,1.29.49,1,.91,2,1.28,3.04.02.03.02.06.04.1,0,.04.02.06.03.1.7,1.97,1.17,3.94,1.4,5.86.04.21.06.42.08.63.17,1.69.15,3.34-.03,4.94,0,.06-.01.11-.02.16-.15,1.24-.41,2.45-.8,3.62-.04.13-.07.27-.14.4-.07.2-.15.4-.22.6h4.57c.94-3.04,1.2-6.3.82-9.63,0-.11-.02-.24-.04-.36-1.23-9.8-7.9-20.16-18.61-27.23-16.69-11.03-36.86-9.88-45.08,2.54-5.7,8.64-4.12,20.44,2.98,30.55.1.15.21.3.32.46Z"/>
            <path class="cls-3" d="m73.44,44.69c4.67-1.22,8.53-1.98,8.53-1.98,0,0-3.65,1.51-8.33,2.75-.51.14-1.01.26-1.51.37.76,1.04,1.6,2.06,2.51,3.04,1.43-.87,3.08-1.89,4.84-3,2.64-1.67,5.04-3.18,6.78-4.29,1.64-1,2.7-1.65,2.83-1.72-.11.09-1.07.88-2.61,2.05-1.63,1.24-3.92,2.94-6.58,4.62-1.72,1.09-3.38,2.03-4.85,2.78.29.31.62.61.93.91h2.65c3.51-2.96,6.45-5.06,6.66-5.2-.16.16-2.38,2.43-5.49,5.2h3.67l7.68-11.63-20.98,4.28c.46.77.95,1.54,1.48,2.3.57-.16,1.16-.32,1.77-.48Z"/>
            <path class="cls-3" d="m68.35,20.6c-.48.89-.88,1.82-1.18,2.78,1.47.62,3.86,1.69,6.51,3.05,4.03,2.07,7.19,4.1,7.57,4.35-.35-.13-3.85-1.54-7.94-3.64-2.62-1.35-4.87-2.67-6.23-3.5-.39,1.22-.64,2.48-.76,3.76,1.69.38,4.38,1.02,7.35,1.88,4.68,1.36,8.44,2.81,8.93,3.01-.46-.09-4.43-.88-9.15-2.26-2.94-.85-5.52-1.74-7.15-2.34-.13,1.43-.1,2.9.08,4.38,1.62.17,4.81.48,8.44.84,5.26.54,9.58.97,9.58.97,0,0-1.08.08-2.83.11-1.75.02-4.17-.02-6.82-.3-2.66-.26-5.04-.69-6.75-1.07-.62-.14-1.15-.27-1.58-.36.21,1.71.62,3.44,1.23,5.17,1.57-.31,4.2-.81,7.19-1.32,4.83-.81,8.78-1.35,8.78-1.35,0,0-3.79,1.31-8.65,2.12-2.97.5-5.62.72-7.24.8.24.69.52,1.38.83,2.06.12-.06.25-.1.38-.13l21.54-4.4-22.13-14.6Z"/>
            <path class="cls-3" d="m90.65,50.22c.19-.26.3-.41.3-.41,0,0-.07.15-.2.41h1.57c.34-1.53.63-2.92.86-4.04.36-1.82.59-2.96.59-2.96,0,0-.03,1.16-.2,3.01-.1,1.11-.28,2.48-.54,3.98h1.86c-.02-.17-.02-.27-.02-.27,0,0,.03.1.09.27h1.08l-1.99-9.73-6.42,9.73h3.03Z"/>
            <path class="cls-3" d="m103.95,15.02c-.28.87-.71,1.84-1.25,2.84-.79,1.45-1.59,2.68-2.12,3.61-.53.92-.84,1.53-.84,1.53,0,0,.12-.66.49-1.69.35-1.03,1-2.38,1.77-3.82.54-1,1.05-1.92,1.44-2.72-1.04-.54-2.09-1.02-3.14-1.44-.15,1.35-.52,3.91-1.31,6.75-.59,2.12-1.28,3.98-1.84,5.29-.56,1.33-.95,2.12-.95,2.12,0,0,.89-3.44,2.04-7.62.8-2.85,1.52-5.33,1.9-6.63-.78-.32-1.56-.6-2.34-.85-.02.94-.11,2.32-.36,3.83-.47,2.78-1.33,4.94-1.33,4.94,0,0,.09-2.31.56-5.08.26-1.54.58-2.91.81-3.81-1.38-.44-2.76-.79-4.13-1.06.32.96.92,2.9,1.38,5.17.66,3.28.81,6.01.81,6.01,0,0-.92-2.57-1.59-5.85-.47-2.33-.69-4.37-.77-5.36-.56-.1-1.11-.19-1.66-.27l4.23,20.71,10.22-15.47c-.67-.41-1.34-.79-2.02-1.15Z"/>
            <path class="cls-3" d="m119.2,29.33c-.29-.49-.59-.99-.91-1.46-.73.26-1.53.52-2.38.77-2,.56-3.85.9-5.2,1.09-1.35.19-2.19.25-2.19.25,0,0,3.22-.97,7.17-2.09.76-.21,1.5-.42,2.19-.61-.64-.95-1.34-1.87-2.1-2.77-.47.47-1.09,1-1.85,1.51-1.83,1.23-3.58,1.66-3.58,1.66,0,0,1.39-1.12,3.14-2.31.71-.47,1.4-.9,1.96-1.24-.46-.53-.95-1.06-1.44-1.57-1.19.99-2.6,2.14-4.14,3.33-4.42,3.43-8.24,5.92-8.48,6.07.21-.18,3.58-3.27,8-6.7,1.51-1.17,2.94-2.23,4.19-3.12-.59-.59-1.2-1.16-1.83-1.73-.51.76-1.23,1.75-2.09,2.78-1.83,2.2-3.61,3.73-3.61,3.73,0,0,1.18-2.03,3.01-4.23.86-1.03,1.71-1.91,2.36-2.55-.83-.71-1.69-1.4-2.6-2.05l-10.22,15.46,20.58-4.21Z"/>
            <path class="cls-3" d="m101.17,50.22c-1.04-3.41-1.7-5.75-1.7-5.75,0,0,1.06,2.31,2.35,5.75h2.14c-.88-1.94-1.39-3.23-1.39-3.23,0,0,.82,1.26,1.97,3.23h3.5c-.71-.74-1.33-1.43-1.84-2.02-1.01-1.17-1.61-1.96-1.68-2.06.14.13,1.98,1.81,4.48,4.09h4.19l-15.78-10.42,2.13,10.42h1.63Z"/>
            <path class="cls-3" d="m121.71,50.22c.19-.45.36-.9.51-1.36-.62-.28-1.3-.59-2-.93-2.8-1.39-4.97-2.84-5.23-3.03.26.08,2.74.91,5.59,2.33.67.33,1.29.66,1.87.97.28-.95.47-1.91.59-2.92-1.42-.28-3.23-.7-5.17-1.33-2.15-.71-4.03-1.53-5.36-2.19-1.33-.65-2.12-1.11-2.12-1.11,0,0,3.48,1.15,7.72,2.54,1.89.61,3.64,1.17,4.99,1.61.15-1.43.13-2.9-.04-4.41-1.6-.09-3.31-.21-5.1-.37-4.15-.39-7.88-.95-10.57-1.42-2.52-.45-4.12-.8-4.32-.84.2.01,1.83.19,4.37.45,2.71.26,6.45.62,10.58,1.03,1.73.16,3.38.3,4.93.44-.22-1.65-.65-3.33-1.25-5.03,0-.03-.02-.04-.03-.07-1.25.43-2.94.91-4.82,1.23-2.05.35-3.94.46-5.29.46-1.36,0-2.2-.07-2.2-.07,0,0,.84-.12,2.17-.32,1.34-.2,3.16-.49,5.18-.84,1.84-.31,3.53-.62,4.81-.86-.21-.56-.44-1.13-.69-1.68l-21.52,4.4,20.14,13.3h2.26Z"/>
            <path class="cls-3" d="m84.99,10.41s.02.11.04.32c.02,0,.05,0,.07,0-.07-.21-.11-.31-.11-.31Z"/>
          </g>
          <path class="cls-3" d="m66.25,50.22c-.29-1.53-.91-2.66-.91-2.66,0,0-.24.93-.24,2.18-.16-.2-.31-.41-.46-.62.14-.88.19-1.7.21-2.31.02-.63,0-1.04,0-1.04,0,0-.26.32-.56.89-.16.31-.34.69-.49,1.13-.14-.26-.26-.52-.38-.78.1-.16.2-.33.29-.52.51-1.12.39-2.27.39-2.27,0,0-.71.5-1.24,1.36-.08-.27-.15-.53-.21-.79.04-.06.08-.12.12-.19.66-1.14.84-2.36.84-2.36,0,0-.59.29-1.19.9-.02-.73.07-1.39.26-1.98.58.01,1.05-.14,1.05-.14,0,0-.11-.2-.34-.45-.16-.17-.4-.34-.68-.48-1.58-3.88-2.57-8.28-2.53-13.25,0,0-4.02,10.71.86,23.35h5.22Z"/>
        </g>
      </g>
      <g>
        <rect class="cls-2" x="56.37" y="94.51" width="74.77" height="14.45" rx="5.84" ry="5.84"/>
        <text class="cls-4" transform="translate(57.94 105.56)"><tspan class="cls-5" x="0" y="0">O</tspan><tspan class="cls-7" x="9.21" y="0">r</tspan><tspan class="cls-5" x="13.12" y="0">ganic </tspan><tspan class="cls-6" x="44.85" y="0">f</tspan><tspan class="cls-5" x="48.2" y="0">ood</tspan></text>
      </g>
    </g>
  </g>
</svg>